# xmcd
#
# Track frame offsets:
#	182
#	14180
#	25365
#	39557
#	56272
#	72070
#	86137
#	101295
#	117772
#	130970
#	147307
#	163162
#	185097
#	198465
#	214397
#
# Disc length: 3202
#
# Revision: 5
# Processed by: cddbd v1.5.1PL0 Copyright (c) Steve Scherf et al.
# Submitted via: CDex 1.51
# Normalized: r4:DSETVAR1
#
DISCID=e00c800f
DTITLE=Various Artist - Red Hot Blues
DYEAR=1994
DGENRE=Blues
TTITLE0=King Biscuit Boy and  Ronnie Hawkins Band - Neighbour Neighbour
TTITLE1=Ike Turner - Ho Ho
TTITLE2=Buddy Guy - Sit And Cry (The Blues)
TTITLE3=Charlie Musselwhite - Troule No More
TTITLE4=Buddy Reed - Blues For Mud
TTITLE5=Muddy Waters - Got My Mojo Workin'
TTITLE6=Jimmy Reed - Dawn At The Corner Grocery Store
TTITLE7=U.P. Wilson - Johnny B Goode
TTITLE8=Sonny Boy Williamson - Bye Bye Bird
TTITLE9=Paul DeLay Band - All My Money Gone
TTITLE10=John Lee Hooker - Black Man Blues
TTITLE11=Paul Orta and The Kingpins - Boy Scout Plan
TTITLE12=Earl Hooker - Blues For Dancers
TTITLE13=Mighty Houserockers and Les Wilson - Madison Blues
TTITLE14=Luther Allison - Your're Gonna Need Me
EXTD=YEAR: 1994
EXTT0=
EXTT1=
EXTT2=
EXTT3=
EXTT4=
EXTT5=
EXTT6=
EXTT7=
EXTT8=
EXTT9=
EXTT10=
EXTT11=
EXTT12=
EXTT13=
EXTT14=
PLAYORDER=
